PathFileType	4	(X/Y/Z)	Patient5_TMGait_0pt45_1_left_05.trc.trc
DataRate	CameraRate	NumFrames	NumMarkers	Units	OrigDataRate	OrigDataStartFrame	OrigNumFrames
57.851239669421	57.851239669421	5	32	mm	57.851239669421	18	       141
Frame#	Time	R.ASIS			L.ASIS			Chest			R.Shoulder			Neck			L.Shoulder			L.Elbow			L.Wrist			R.Elbow			R.Wrist			L.Thigh.Superior			L.Thigh.Lateral			L.Thigh.Inferior			L.Patella			L.Shank.Superior			L.Shank.Lateral			L.Shank.Inferior			L.Heel			L.Midfoot.Lateral			L.Midfoot.Superior			L.Toe			R.Thigh.Superior			R.Thigh.Lateral			R.Thigh.Inferior			R.Patella			R.Shank.Superior			R.Shank.Lateral			R.Shank.Inferior			R.Heel			R.Midfoot.Lateral			R.Midfoot.Superior			R.Toe			
		X1	Y1	Z1	X2	Y2	Z2	X3	Y3	Z3	X4	Y4	Z4	X5	Y5	Z5	X6	Y6	Z6	X7	Y7	Z7	X8	Y8	Z8	X9	Y9	Z9	X10	Y10	Z10	X11	Y11	Z11	X12	Y12	Z12	X13	Y13	Z13	X14	Y14	Z14	X15	Y15	Z15	X16	Y16	Z16	X17	Y17	Z17	X18	Y18	Z18	X19	Y19	Z19	X20	Y20	Z20	X21	Y21	Z21	X22	Y22	Z22	X23	Y23	Z23	X24	Y24	Z24	X25	Y25	Z25	X26	Y26	Z26	X27	Y27	Z27	X28	Y28	Z28	X29	Y29	Z29	X30	Y30	Z30	X31	Y31	Z31	X32	Y32	Z32	

18	7.093857142857	928.805606402196	958.494604434215	611.910475876466	912.793308084665	954.261867860630	372.717670239407	1013.575323692409	1421.313092193407	507.249038610854	934.918913191429	1482.729007260260	685.838151049507	882.734447541145	1545.642562536371	506.104895111296	931.796737812196	1496.201968134342	319.453462546564	815.809020804108	1189.016113174004	193.884420473356	921.262916431380	922.095024540483	169.711120232566	875.988250198344	1166.634173720771	840.281238724578	1077.531128619755	972.763197597800	763.883963233548	986.369396830653	784.607912775855	341.859858523780	951.914957491920	699.528138201263	288.589970072898	1047.552187777739	673.461866159656	345.825965629409	1101.115787390130	544.915528518703	327.832466085046	1053.212190097383	435.449422425937	350.506993248225	969.051205346173	374.554834843181	283.409277916839	1013.955776107883	315.327510443200	361.287510479161	868.434438455725	95.000744799426	376.928210749507	941.210641716908	67.382846262851	299.600049380118	1050.623598114102	117.972308849294	323.288517835174	1149.231069729482	68.907524629203	304.308100892090	907.051372780834	725.125118102348	621.065993990827	806.395869896373	658.901189494697	667.620278867384	876.278736377003	598.273302069912	590.815820246258	862.129791331425	503.820961152729	613.068497615778	814.793120904296	417.650819376971	569.512198901391	739.630561194265	349.468016278648	645.697678274313	794.573235738905	280.297969671280	561.537605059186	669.076424400129	53.644446861706	508.192483190031	740.489528503202	25.220929003449	588.135311428740	848.086313060751	87.202783421018	573.782810589672	951.627037965433	44.455137302424	583.575331392579	
19	7.111142857143	927.307610524039	956.601363556834	612.165398655198	914.752303628186	952.326067537115	372.727157356061	1015.856400864730	1419.695890857233	506.329020915425	935.994594820795	1481.857083118718	684.069790255021	885.315852823102	1544.390948211592	503.784888517199	935.948389516171	1494.232030286473	317.606608604224	819.301107869799	1187.101598285329	192.297518326961	923.858599326926	919.875017269500	168.380640641901	875.177464760062	1165.869829618017	838.132594732987	1077.613708341213	972.132730509569	763.720988213484	984.566558113209	779.302122517581	341.397161783119	948.428830275958	694.196996823011	289.354161966814	1043.884202800317	667.421237206951	346.648868320448	1097.481285950777	543.291035454643	330.130288958107	1057.522925506978	433.570341659306	352.942961333276	978.490061413559	366.360911542767	285.655755163772	1029.294283498150	310.375662590556	363.021236664332	902.865858832920	79.823708888843	378.159538516017	977.417422405491	56.170382068534	301.257892985890	1083.274091019946	114.136819226806	324.295586214441	1184.952054126355	71.362011651964	305.999952970928	903.990248029276	724.105138951833	620.771602451940	802.371761457995	658.830052318835	666.755275021593	872.327189231138	597.570139512915	590.591606562498	857.199085632454	503.096067978640	612.870308355316	809.316479753503	417.189685756584	569.150892705964	733.118503038724	349.874087170815	644.939680417240	788.127886139790	280.099790541148	561.335381556838	661.268951324729	53.633553262579	508.130228635395	732.606255533062	25.253001737618	588.115272648839	840.158279454224	87.144941158584	573.793812389294	943.685384687814	44.456033911541	583.596127014448	
20	7.128428571429	926.413628881057	955.019283837828	612.243356339752	917.424863847491	950.208941168295	372.616734306686	1018.129542882221	1418.050749028287	505.205166930100	936.784542370416	1480.855828777606	681.907800414410	887.849701141547	1543.018964600035	501.044089711202	940.403890811718	1492.225642177455	315.448408242834	823.339776930530	1185.096147284898	190.298644823319	926.786803459036	917.452900790281	166.976095253213	874.338631567558	1164.873893090613	835.478093161889	1077.452343609909	970.861552090246	763.530446737149	983.197377839399	773.113087802577	340.774174099060	944.766353235842	687.970553249265	290.391487195054	1040.107313006296	660.354069170986	347.710074691156	1093.137886008773	540.714750826497	333.369236143361	1060.477471052208	431.121407950744	356.369341878904	986.795832611926	358.445065096575	288.557427175607	1042.533335109190	305.809667948181	365.668319662201	933.921996838415	67.668984644417	379.193621945822	1010.509770031581	47.091874519180	303.541707056562	1112.647312660802	111.166407132136	327.024920730510	1216.794761400211	73.841249053500	310.479797337322	901.534168356272	723.112140515130	620.198872540651	798.933672291634	658.761611656235	665.671887279547	869.029028092395	596.824697450242	590.276744633556	852.845446906495	502.318390675169	612.561458599822	804.353100994657	416.614666669317	568.670962223417	726.992808861544	350.312563961699	644.046729239759	781.991404070312	279.814268998559	561.046813159551	653.445391209661	53.607410470016	508.055194508498	724.731664213898	25.271501884509	588.081873220339	832.228038856434	87.145927177975	573.787487446237	935.759653773167	44.438516035271	583.590587751621	
21	7.145714285714	926.295245007485	953.956877814340	611.912856573534	920.856550098530	948.068019316588	372.326576611129	1020.354197002729	1416.495481488548	503.869723662702	937.190564691204	1479.840634394762	679.337661530922	890.287487238776	1541.599247369835	497.862629157387	945.080608891245	1490.245400639948	312.969867050637	828.015079976045	1183.044303187351	187.797108119322	930.147124395063	914.868922248701	165.549963662384	873.430361928348	1163.757144387969	832.328996829101	1077.033427599469	969.151870554953	763.233545327073	982.653876913110	766.551314149387	340.169372694014	941.582175391518	681.385451395069	291.688684029752	1036.723504250119	652.851942175271	349.241953585038	1088.649062746044	537.475896718415	337.695260449477	1062.213016468936	428.189067386712	360.782391392905	993.740673957500	351.139411243186	292.126916147947	1053.120190107615	301.606620927101	369.254118997005	959.810829825255	58.568618332016	380.070127049152	1038.679282828963	40.162620952426	306.375934448585	1137.288696238479	108.781359263266	331.506698866060	1243.353493590402	75.744292786118	317.590311549020	899.788482549937	722.154017345528	619.305637459357	796.208894824320	658.690476549828	664.360308313075	866.480449100720	596.028797015313	589.839877098271	849.171537210169	501.483627043680	612.122517483859	799.993536673362	415.932035214173	568.061267491709	721.343885776588	350.794608636049	643.023912232975	776.213495392595	279.450024363432	560.678256958300	645.611426762487	53.573601410986	507.980016106865	716.873953943357	25.272881533997	588.033818524731	824.307247514913	87.208209483133	573.770159298679	927.858504822236	44.405862546734	583.566214850748	
22	7.163000000000	926.987551743146	953.495315194197	611.051044615292	925.021659815630	946.075545733102	371.803569596662	1022.510462452490	1415.161844092646	502.313296834322	937.155047691705	1478.938448059073	676.365366414343	892.610437340670	1540.222963853123	494.245766746872	949.877886790761	1488.372806493861	310.175620081060	833.379289849847	1180.995911360769	184.758740079383	934.027396166259	912.185975518249	164.128977605032	872.369155768738	1162.645867628188	828.702158314313	1076.337851531704	967.264829902235	762.754145317714	983.326368857550	760.252139603354	339.797220186472	939.605289068086	675.093516324902	293.213684662048	1034.284620074013	645.611217583362	351.431420277390	1084.637264371463	533.926552272411	343.099432198875	1062.971571497828	424.937315841380	366.000057720139	999.288421720477	344.766384431663	296.167811430650	1060.718293713263	297.740701612970	373.605312086849	979.157341402510	52.362876040819	380.813055383948	1060.417029397185	35.213209610466	309.561847931651	1156.065642576935	106.586344424144	337.457524438687	1263.508383261811	76.363169178840	326.744416025286	898.799470351453	721.250031414765	618.115742833537	794.265036059274	658.624078803429	662.825938875738	864.727045267627	595.195500292253	589.258098301268	846.232147729438	500.605057867364	611.547165265327	796.290753685587	415.165108667338	567.321616104915	716.230342499751	351.339271368241	641.880714994789	770.820794820208	279.035761610470	560.239185069992	637.780551791441	53.567119048919	507.917710096336	709.044829629310	25.264949472394	587.970688582498	816.422436183536	87.323439566812	573.756008118651	919.991677690828	44.360503415538	583.535268681289	
